<svg width="30" height="30" viewBox="0 0 30 30" fill="none" xmlns="http://www.w3.org/2000/svg">
<path d="M8.92536 0.651418C1.35713 4.19994 -1.91967 13.1545 1.59686 20.6545C5.1134 28.1545 14.0928 31.3624 21.6611 27.8139C25.3747 26.0727 28.0511 23.028 29.4064 19.4933C29.5735 19.0526 29.4371 18.5544 29.0647 18.2705C28.6924 17.9865 28.17 17.9726 27.7813 18.2436C27.2291 18.6282 26.6418 18.9701 26.0107 19.2661C20.0725 22.0503 13.0157 19.531 10.2525 13.6377C8.38192 9.64824 8.95913 5.13972 11.3669 1.77721C11.6412 1.38973 11.6322 0.876248 11.347 0.50706C11.0617 0.137871 10.5613 -0.00469391 10.1153 0.160059C9.715 0.310761 9.3204 0.47359 8.9282 0.657481L8.92536 0.651418Z" fill="white"/>
</svg>
