<svg width="148" height="35" viewBox="0 0 148 35" fill="none" xmlns="http://www.w3.org/2000/svg">
<path fill-rule="evenodd" clip-rule="evenodd" d="M65.9794 10.8137C63.4186 10.8137 61.922 11.1349 61.4905 11.7764C61.0589 12.4187 60.8431 14.6422 60.8431 18.4468C60.8431 21.2648 61.0954 22.9607 61.6008 23.536C62.1061 24.1106 63.5946 24.3983 66.0678 24.3983C68.4316 24.3983 69.8503 24.0748 70.3208 23.4285C70.7912 22.7813 71.0273 20.8185 71.0273 17.5415C71.0273 14.2541 70.8042 12.3111 70.3581 11.7118C69.9119 11.1133 68.4518 10.8137 65.9794 10.8137ZM66.2739 7.62115C69.9241 7.62115 72.2732 8.21328 73.3229 9.39674C74.3733 10.5802 74.8981 13.2276 74.8981 17.339C74.8981 21.8338 74.3709 24.6661 73.3164 25.8344C72.2619 27.0043 69.7075 27.5885 65.6558 27.5885C62.0055 27.5885 59.6451 27.0115 58.576 25.8567C57.5068 24.7012 56.9723 22.1597 56.9723 18.23C56.9723 13.5536 57.4971 10.6169 58.5468 9.41825C59.5964 8.22125 62.1726 7.62195 66.2747 7.62195M81.286 17.6706H86.7606C88.0657 17.6706 88.9312 17.4434 89.3579 16.9876C89.7854 16.5333 89.9987 15.62 89.9987 14.2493C89.9987 12.8499 89.8146 11.9469 89.4471 11.5397C89.0789 11.1325 88.2709 10.9285 87.0258 10.9285H81.286V17.6706ZM77.4736 27.4171V7.79489H87.3787C89.8414 7.79489 91.5383 8.21169 92.4711 9.04608C93.4032 9.87889 93.8688 11.3891 93.8688 13.5735C93.8688 15.5579 93.636 16.9135 93.1704 17.6419C92.7039 18.3703 91.75 18.8731 90.307 19.1513V19.2804C92.5344 19.4151 93.6489 20.6846 93.6489 23.0898V27.4171H89.8365V23.8373C89.8365 21.8154 88.816 20.8041 86.7752 20.8041H81.286V27.4171H77.4736ZM46.1108 10.9285V16.2185H55.118V19.3521H46.1108V27.4171H42.2992V7.79489H55.603V10.9285H46.1108ZM100.315 10.9285V15.989H109.734V18.7345H100.315V24.2836H110.339V27.4171H96.5034V7.79489H110.25V10.9285H100.315ZM116.99 7.79489V15.7874H118.786L125.468 7.79489H130.207L122.097 17.3255L131.061 27.4171H126.174L118.815 18.921H116.99V27.4171H113.178V7.79489H116.99ZM147.515 13.5161H143.792C143.771 13.3344 143.762 13.1997 143.762 13.1137C143.673 12.0123 143.423 11.319 143.011 11.0368C142.598 10.7539 141.628 10.6121 140.097 10.6121C138.292 10.6121 137.112 10.7754 136.558 11.1014C136.003 11.4273 135.726 12.1127 135.726 13.1567C135.726 14.3935 135.952 15.1363 136.403 15.3849C136.854 15.6344 138.346 15.8256 140.877 15.9603C143.87 16.1229 145.805 16.5397 146.683 17.2107C147.561 17.8818 148 19.2756 148 21.3939C148 24.0007 147.485 25.6846 146.455 26.4465C145.425 27.2083 143.153 27.5901 139.641 27.5901C136.481 27.5901 134.384 27.2155 133.349 26.468C132.314 25.7205 131.796 24.2071 131.796 21.9254L131.782 21.2074H135.49L135.505 21.6242C135.505 22.9949 135.751 23.8333 136.241 24.1393C136.731 24.4461 138.071 24.5992 140.259 24.5992C141.967 24.5992 143.055 24.4222 143.526 24.0676C143.997 23.713 144.232 22.8937 144.232 21.6098C144.232 20.6607 144.054 20.0303 143.695 19.7195C143.337 19.4079 142.564 19.2182 141.378 19.1513L139.273 19.0222C136.094 18.8397 134.063 18.4085 133.179 17.7279C132.297 17.0482 131.855 15.5866 131.855 13.3432C131.855 11.0536 132.388 9.52664 133.452 8.76476C134.518 8.00369 136.643 7.62195 139.832 7.62195C142.854 7.62195 144.89 7.97261 145.94 8.67152C146.989 9.37123 147.515 10.7372 147.515 12.7686V13.5161Z" fill="#F0B90A"/>
<path fill-rule="evenodd" clip-rule="evenodd" d="M8.03577 17.5L17.9157 27.1493L22.6578 31.7812L20.3849 34.0006C19.0213 35.3331 16.8093 35.3331 15.4449 34.0006L1.02328 19.9123C-0.341093 18.5799 -0.341093 16.4201 1.02328 15.0877L15.4457 0.999362C16.8101 -0.333121 19.0221 -0.333121 20.3857 0.999362L22.6586 3.21804L17.9165 7.84986L8.03577 17.5ZM34.809 19.9123L27.5977 26.9573L22.8549 22.3247L27.7948 17.5L22.8549 12.6753L27.5969 8.04351L34.809 15.0877C36.1733 16.4201 36.1733 18.5799 34.809 19.9123Z" fill="#F0B90A"/>
</svg>
