<svg width="192" height="44" viewBox="0 0 192 44" fill="none" xmlns="http://www.w3.org/2000/svg">
<path fill-rule="evenodd" clip-rule="evenodd" d="M85.5949 13.569C82.2728 13.569 80.3312 13.972 79.7714 14.777C79.2116 15.583 78.9317 18.373 78.9317 23.147C78.9317 26.683 79.2589 28.811 79.9145 29.533C80.5701 30.254 82.5011 30.615 85.7096 30.615C88.7761 30.615 90.6166 30.209 91.2269 29.398C91.8373 28.586 92.1435 26.123 92.1435 22.011C92.1435 17.886 91.8541 15.448 91.2753 14.696C90.6966 13.945 88.8024 13.569 85.5949 13.569ZM85.9769 9.56299C90.7124 9.56299 93.7599 10.306 95.1216 11.791C96.4843 13.276 97.1652 16.598 97.1652 21.757C97.1652 27.397 96.4812 30.951 95.1131 32.417C93.7451 33.885 90.4314 34.618 85.1751 34.618C80.4396 34.618 77.3774 33.894 75.9904 32.445C74.6035 30.995 73.91 27.806 73.91 22.875C73.91 17.007 74.5909 13.322 75.9525 11.818C77.3142 10.316 80.6564 9.56399 85.978 9.56399M105.452 22.173H112.554C114.247 22.173 115.37 21.888 115.924 21.316C116.478 20.746 116.755 19.6 116.755 17.88C116.755 16.124 116.516 14.991 116.04 14.48C115.562 13.969 114.514 13.713 112.898 13.713H105.452V22.173ZM100.506 34.403V9.78099H113.356C116.551 9.78099 118.752 10.304 119.963 11.351C121.172 12.396 121.776 14.291 121.776 17.032C121.776 19.522 121.474 21.223 120.87 22.137C120.265 23.051 119.027 23.682 117.155 24.031V24.193C120.045 24.362 121.491 25.955 121.491 28.973V34.403H116.545V29.911C116.545 27.374 115.221 26.105 112.573 26.105H105.452V34.403H100.506ZM59.8195 13.713V20.351H71.5044V24.283H59.8195V34.403H54.8746V9.78099H72.1337V13.713H59.8195ZM130.138 13.713V20.063H142.358V23.508H130.138V30.471H143.142V34.403H125.194V9.78099H143.027V13.713H130.138ZM151.771 9.78099V19.81H154.101L162.769 9.78099H168.917L158.396 21.74L170.024 34.403H163.685L154.139 23.742H151.771V34.403H146.826V9.78099H151.771ZM191.371 16.96H186.541C186.514 16.732 186.502 16.563 186.502 16.455C186.387 15.073 186.063 14.203 185.528 13.849C184.993 13.494 183.733 13.316 181.747 13.316C179.406 13.316 177.875 13.521 177.156 13.93C176.436 14.339 176.077 15.199 176.077 16.509C176.077 18.061 176.37 18.993 176.955 19.305C177.54 19.618 179.475 19.858 182.76 20.027C186.642 20.231 189.152 20.754 190.292 21.596C191.431 22.438 192 24.187 192 26.845C192 30.116 191.332 32.229 189.995 33.185C188.659 34.141 185.712 34.62 181.156 34.62C177.057 34.62 174.336 34.15 172.993 33.212C171.65 32.274 170.979 30.375 170.979 27.512L170.96 26.611H175.771L175.79 27.134C175.79 28.854 176.109 29.906 176.745 30.29C177.381 30.675 179.119 30.867 181.958 30.867C184.173 30.867 185.585 30.645 186.196 30.2C186.807 29.755 187.112 28.727 187.112 27.116C187.112 25.925 186.88 25.134 186.415 24.744C185.951 24.353 184.948 24.115 183.409 24.031L180.678 23.869C176.554 23.64 173.919 23.099 172.773 22.245C171.628 21.392 171.056 19.558 171.056 16.743C171.056 13.87 171.746 11.954 173.127 10.998C174.509 10.043 177.266 9.56399 181.403 9.56399C185.324 9.56399 187.965 10.004 189.327 10.881C190.689 11.759 191.371 13.473 191.371 16.022V16.96Z" fill="#EAECEF"/>
<path fill-rule="evenodd" clip-rule="evenodd" d="M10.4248 21.959L23.242 34.067L29.3939 39.879L26.4453 42.664C24.6763 44.336 21.8066 44.336 20.0366 42.664L1.3275 24.986C-0.442499 23.314 -0.442499 20.604 1.3275 18.932L20.0377 1.254C21.8077 -0.418 24.6774 -0.418 26.4463 1.254L29.3949 4.038L23.2431 9.85L10.4248 21.959ZM45.1576 24.986L35.8025 33.826L29.6496 28.013L36.0582 21.959L29.6496 15.905L35.8014 10.093L45.1576 18.932C46.9276 20.604 46.9276 23.314 45.1576 24.986Z" fill="#EAECEF"/>
</svg>
